<?xml version="1.0" encoding="UTF-8"?>
<!-- Generated by Pixelmator Pro 3.4.3 -->
<svg width="748" height="470" viewBox="0 0 748 470" xmlns="http://www.w3.org/2000/svg">
    <path id="Rectangle-copy" fill="#2a7598" fill-rule="evenodd" stroke="none" d="M -0.438507 469.38623 L 745.443665 469.38623 L 745.443665 0.701477 L -0.438507 0.701477 Z"/>
    <path id="rta-copy" fill="#ffffff" fill-rule="evenodd" stroke="none" d="M 444.500916 215.346558 L 478.341156 215.346558 C 479.057343 192.768127 486.219238 176.372162 499.827026 166.158142 C 513.434814 155.944092 530.981445 150.837158 552.467407 150.837158 C 562.494202 150.837158 571.894165 151.643494 580.667664 153.256256 C 589.441101 154.868988 597.140137 157.825684 603.764954 162.126282 C 610.389771 166.426941 615.582214 172.250671 619.342224 179.597595 C 623.102295 186.94455 624.9823 196.352081 624.9823 207.820465 C 624.9823 215.346588 623.997498 221.439087 622.027954 226.098114 C 620.05835 230.757156 617.283203 234.430573 613.702209 237.118484 C 610.121216 239.806381 605.64502 241.687881 600.273499 242.763046 C 594.902039 243.838211 588.635315 244.734161 581.473328 245.450943 C 563.210266 247.601273 545.216064 249.841156 527.490112 252.17067 C 509.76416 254.500183 493.828949 258.531982 479.684021 264.266174 C 465.539063 270.000366 454.169617 278.332764 445.575195 289.26358 C 436.980804 300.194397 432.683655 315.335999 432.683655 334.688965 C 432.683655 348.666046 435.1008 360.761444 439.93515 370.975464 C 444.769501 381.189514 451.394257 389.611481 459.809601 396.241638 C 468.224945 402.871826 478.07254 407.709961 489.352692 410.756256 C 500.632782 413.802551 512.718506 415.325684 525.610046 415.325684 C 539.217896 415.325684 550.945435 414.07135 560.793152 411.562622 C 570.64093 409.053925 579.414246 405.470093 587.113403 400.811066 C 594.812561 396.152039 601.795349 390.328308 608.062134 383.339783 C 614.328857 376.351227 620.506042 368.377228 626.593689 359.417542 L 627.66803 359.417542 C 627.66803 366.585266 628.115601 373.125763 629.010864 379.039154 C 629.906128 384.952515 631.786133 390.059479 634.650879 394.360107 C 637.515686 398.660767 641.544312 401.9758 646.736694 404.305328 C 651.929138 406.634827 658.822449 407.799591 667.41687 407.799591 C 672.072144 407.799591 675.921631 407.620392 678.965515 407.261993 C 682.009399 406.903625 685.500793 406.366028 689.43988 405.649261 L 689.43988 377.157623 C 686.21698 378.591187 682.636047 379.307922 678.69696 379.307922 C 665.447205 379.307922 658.82251 372.498688 658.82251 358.879944 L 658.82251 211.583496 C 658.82251 192.947357 655.778687 177.805725 649.69104 166.158142 C 643.603271 154.510559 635.725281 145.461395 626.056519 139.010437 C 616.387878 132.559479 605.466003 128.169281 593.290588 125.839783 C 581.115173 123.510254 568.940002 122.34552 556.764587 122.34552 C 540.650085 122.34552 525.968262 124.137421 512.718567 127.721283 C 499.468872 131.305176 487.920319 136.860107 478.072601 144.3862 C 468.224854 151.912354 460.436279 161.588654 454.706696 173.415436 C 448.977081 185.242249 445.575195 199.219147 444.500916 215.346558 Z M 624.9823 256.202515 L 624.9823 300.283936 C 624.9823 313.902649 622.386108 326.087646 617.193604 336.839233 C 612.00116 347.590881 605.018311 356.729614 596.244934 364.255737 C 587.471436 371.78186 577.176208 377.515991 565.358948 381.458252 C 553.541687 385.400513 541.187378 387.371613 528.295837 387.371613 C 520.417603 387.371613 512.718567 386.117279 505.198517 383.608551 C 497.678406 381.099854 491.05368 377.426453 485.324066 372.588196 C 479.594482 367.749969 475.028748 362.015869 471.626831 355.385681 C 468.224884 348.755554 466.523926 341.139923 466.523926 332.538635 C 466.523926 318.919922 470.55249 308.437225 478.609711 301.090302 C 486.666962 293.743347 496.962189 288.098846 509.495697 284.156586 C 522.029175 280.214294 535.905334 277.25766 551.124573 275.28656 C 566.343811 273.315399 581.115173 271.0755 595.439148 268.566833 C 600.094482 267.850037 605.465881 266.595703 611.553589 264.803772 C 617.641235 263.01181 621.759338 260.144775 623.907959 256.202515 Z M 334.098969 130.40921 L 334.098969 47.084534 L 300.258698 47.084534 L 300.258698 130.40921 L 251.915497 130.40921 L 251.915497 158.900818 L 300.258698 158.900818 L 300.258698 348.665985 C 299.900635 372.319519 304.197754 388.536316 313.150238 397.316803 C 322.102753 406.09729 337.858887 410.487488 360.419159 410.487488 C 365.432556 410.487488 370.445862 410.308289 375.45929 409.94989 C 380.472687 409.591522 385.485992 409.412323 390.49939 409.412323 L 390.49939 380.920654 C 380.830719 381.99585 371.16214 382.533386 361.493469 382.533386 C 349.318085 381.81662 341.708557 378.322388 338.664734 372.050629 C 335.62085 365.778839 334.098969 357.088074 334.098969 345.978088 L 334.098969 158.900818 L 390.49939 158.900818 L 390.49939 130.40921 Z M 75.714493 130.40921 L 75.714493 407.799591 L 109.554749 407.799591 L 109.554749 259.965546 C 109.554749 245.271667 112.061401 231.742752 117.074799 219.378387 C 122.088203 207.014008 129.160568 196.352173 138.292114 187.392487 C 147.423645 178.4328 158.255997 171.533966 170.78949 166.695709 C 183.322983 161.857483 197.288666 159.796783 212.686951 160.51358 L 212.686951 126.646149 C 187.619965 125.570984 166.044785 131.125885 147.960739 143.311066 C 129.876724 155.496246 116.537697 172.877747 107.943306 195.456177 L 106.869019 195.456177 L 106.869019 130.40921 Z"/>
</svg>
