<?xml version="1.0" standalone="no"?>
<!DOCTYPE svg PUBLIC "-//W3C//DTD SVG 20010904//EN"
 "http://www.w3.org/TR/2001/REC-SVG-20010904/DTD/svg10.dtd">
<svg version="1.0" xmlns="http://www.w3.org/2000/svg"
 width="1496.000000pt" height="1496.000000pt" viewBox="0 0 1496.000000 1496.000000"
 preserveAspectRatio="xMidYMid meet">
<metadata>
Created by potrace 1.14, written by Peter Selinger 2001-2017
</metadata>
<g transform="translate(0.000000,1496.000000) scale(0.100000,-0.100000)"
fill="#000000" stroke="none">
<path d="M0 7480 l0 -4690 7453 2 7452 3 0 4685 0 4685 -7452 3 -7453 2 0
-4690z m6680 2925 l0 -835 565 0 565 0 0 -285 0 -285 -565 0 -565 0 0 -1902
c0 -1207 4 -1942 10 -2010 12 -126 48 -275 83 -345 67 -132 216 -200 462 -210
116 -5 379 7 523 24 l52 6 0 -285 0 -284 -300 -14 c-167 -7 -362 -10 -442 -7
-326 15 -579 86 -745 210 -187 139 -287 395 -313 804 -6 86 -10 959 -10 2081
l0 1932 -480 0 -480 0 0 285 0 285 480 0 480 0 0 828 c0 456 3 832 7 835 3 4
156 7 340 7 l333 0 0 -835z m4775 -685 c476 -43 792 -138 1062 -319 309 -207
536 -555 612 -941 45 -227 44 -183 50 -1935 l6 -1660 24 -60 c35 -88 108 -157
197 -185 84 -25 231 -28 317 -5 32 8 60 15 63 15 2 0 3 -127 2 -283 l-3 -282
-110 -17 c-170 -27 -461 -27 -590 0 -141 30 -232 77 -323 168 -128 127 -180
277 -202 574 -5 80 -10 157 -10 173 0 15 -4 27 -10 27 -5 0 -42 -46 -82 -102
-349 -493 -644 -738 -1062 -884 -505 -176 -1229 -175 -1739 2 -514 179 -861
570 -966 1092 -63 305 -44 693 46 962 61 183 129 294 273 444 226 236 483 378
905 501 312 90 480 117 1545 245 536 65 642 86 750 147 116 66 199 170 244
303 68 206 56 565 -28 795 -56 155 -185 323 -322 421 -87 62 -252 139 -364
169 -198 53 -349 69 -660 69 -253 1 -299 -1 -408 -21 -256 -47 -448 -121 -632
-246 -275 -185 -434 -498 -467 -917 l-8 -95 -339 -3 -338 -2 7 72 c26 285 91
536 196 757 166 349 411 596 765 774 258 129 576 213 929 246 130 12 542 13
670 1z m-7205 -410 l0 -340 -133 0 c-910 0 -1660 -591 -1867 -1471 -57 -242
-54 -150 -60 -1879 l-5 -1595 -335 0 -335 0 -3 2773 -2 2772 315 0 315 0 0
-650 c0 -370 4 -650 9 -650 5 0 19 26 32 58 41 105 146 306 209 402 166 252
358 445 600 602 171 112 348 189 553 243 200 52 341 71 565 73 l142 2 0 -340z"/>
<path d="M12439 7007 c-111 -126 -299 -173 -1229 -307 -487 -70 -574 -86 -795
-142 -324 -82 -526 -166 -711 -297 -247 -173 -354 -366 -370 -666 -18 -311 75
-562 290 -783 144 -149 280 -234 481 -301 176 -59 279 -75 480 -75 707 1 1314
300 1647 814 150 230 228 455 258 740 11 110 14 1070 3 1070 -5 0 -29 -24 -54
-53z"/>
</g>
</svg>
